<svg width="26" height="26" fill="none" xmlns="http://www.w3.org/2000/svg"><path fill-rule="evenodd" clip-rule="evenodd" d="M13 2a.094.094 0 0 0-.063.024.998.998 0 0 1-.172.125L2.003 8.348A.08.08 0 0 0 2 8.369v15.546a.08.08 0 0 0 .025.058.096.096 0 0 0 .066.027h6.545c.025 0 .049-.011.066-.028a.083.083 0 0 0 .024-.058V17.4a2.093 2.093 0 0 1 2.09-2.085h4.365a2.083 2.083 0 0 1 2.09 2.085v6.513c0 .02.01.042.026.058.016.017.04.027.066.027l6.546.001a.096.096 0 0 0 .066-.027.085.085 0 0 0 .025-.058V8.369a.08.08 0 0 0-.003-.021l-10.762-6.2a1 1 0 0 1-.172-.124A.094.094 0 0 0 13 2zM11.69.46a2.094 2.094 0 0 1 2.62 0L25.142 6.7c.062.035.12.077.172.124A2.086 2.086 0 0 1 26 8.37v15.546a2.08 2.08 0 0 1-1.293 1.927 2.096 2.096 0 0 1-.798.158h-6.546a2.094 2.094 0 0 1-1.477-.61 2.083 2.083 0 0 1-.614-1.476V17.4a.083.083 0 0 0-.025-.059.094.094 0 0 0-.066-.027h-4.364c-.025 0-.049.01-.066.027a.083.083 0 0 0-.024.059v6.513a2.094 2.094 0 0 1-2.09 2.085L2.09 26A2.096 2.096 0 0 1 .16 24.714a2.08 2.08 0 0 1-.16-.8V8.37a2.08 2.08 0 0 1 .686-1.545A1 1 0 0 1 .858 6.7L11.69.46z" fill="#008AE0"/></svg>