<svg xmlns="http://www.w3.org/2000/svg" width="252" height="314" fill="none"><path d="M126 0C56.412 0 0 56.412 0 126c0 46.908 26.61 85.378 64.432 113.114 64.432 47.25 44.386 74.454 60.136 74.454h2.864c15.75 0-4.296-27.204 60.136-74.454C225.39 211.378 252 172.908 252 126 252 56.412 195.588 0 126 0z" fill="#F32810"/><path d="M126 0C56.412 0 0 56.412 0 126c0 46.908 26.61 85.378 64.432 113.114 64.432 47.25 44.386 74.454 60.136 74.454h2.864c15.75 0-4.296-27.204 60.136-74.454C225.39 211.378 252 172.908 252 126 252 56.412 195.588 0 126 0z" fill="url(#a)"/><circle cx="126" cy="126" r="42.955" fill="#fff"/><defs><linearGradient id="a" x1="126" y1="0" x2="126" y2="313.568" gradientUnits="userSpaceOnUse"><stop stop-color="#FE5F22"/><stop offset="1" stop-color="#FC5E1F" stop-opacity="0"/></linearGradient></defs></svg>