<svg xmlns="http://www.w3.org/2000/svg" viewBox="0 0 306.625 306.625" style="enable-background:new 0 0 306.625 306.625" xml:space="preserve" fill="#1c2e4a"><path d="M82.883 64.119c0-17.724-14.42-32.143-32.144-32.143S18.596 46.395 18.596 64.119s14.42 32.143 32.144 32.143 32.143-14.42 32.143-32.143zM50.74 83.262c-10.556 0-19.144-8.587-19.144-19.143s8.588-19.143 19.144-19.143 19.144 8.587 19.144 19.143-8.588 19.143-19.144 19.143zM119.122 96.262c17.724 0 32.144-14.419 32.144-32.143s-14.42-32.143-32.144-32.143-32.143 14.419-32.143 32.143 14.419 32.143 32.143 32.143zm0-51.286c10.556 0 19.144 8.587 19.144 19.143s-8.588 19.143-19.144 19.143-19.143-8.587-19.143-19.143 8.587-19.143 19.143-19.143zM187.504 96.262c17.724 0 32.144-14.419 32.144-32.143s-14.42-32.143-32.144-32.143-32.143 14.419-32.143 32.143 14.419 32.143 32.143 32.143zm0-51.286c10.556 0 19.144 8.587 19.144 19.143s-8.588 19.143-19.144 19.143-19.143-8.587-19.143-19.143 8.587-19.143 19.143-19.143zM255.886 31.976c-17.724 0-32.144 14.419-32.144 32.143s14.42 32.143 32.144 32.143 32.143-14.419 32.143-32.143-14.419-32.143-32.143-32.143zm0 51.286c-10.556 0-19.144-8.587-19.144-19.143s8.588-19.143 19.144-19.143 19.143 8.587 19.143 19.143-8.587 19.143-19.143 19.143zM151.265 182.301c0-17.724-14.42-32.144-32.144-32.144s-32.143 14.419-32.143 32.144c0 17.724 14.419 32.143 32.143 32.143s32.144-14.42 32.144-32.143zm-32.143 19.143c-10.556 0-19.143-8.587-19.143-19.143s8.587-19.144 19.143-19.144 19.144 8.588 19.144 19.144-8.589 19.143-19.144 19.143zM187.504 150.157c-17.724 0-32.143 14.419-32.143 32.144 0 17.724 14.419 32.143 32.143 32.143s32.144-14.419 32.144-32.143c-.001-17.724-14.421-32.144-32.144-32.144zm0 51.287c-10.556 0-19.143-8.587-19.143-19.143s8.587-19.144 19.143-19.144 19.144 8.588 19.144 19.144-8.589 19.143-19.144 19.143zM153.313 210.363c-17.724 0-32.144 14.419-32.144 32.144 0 17.724 14.42 32.143 32.144 32.143s32.144-14.419 32.144-32.143-14.42-32.144-32.144-32.144zm0 51.287c-10.556 0-19.144-8.587-19.144-19.143s8.588-19.144 19.144-19.144 19.144 8.588 19.144 19.144-8.588 19.143-19.144 19.143zM117.074 122.095c0-17.724-14.419-32.143-32.143-32.143s-32.144 14.419-32.144 32.143 14.42 32.143 32.144 32.143 32.143-14.42 32.143-32.143zm-32.143 19.143c-10.556 0-19.144-8.587-19.144-19.143s8.588-19.143 19.144-19.143 19.143 8.587 19.143 19.143-8.587 19.143-19.143 19.143zM121.17 122.095c0 17.724 14.42 32.143 32.144 32.143s32.144-14.419 32.144-32.143-14.42-32.143-32.144-32.143-32.144 14.419-32.144 32.143zm32.143-19.143c10.556 0 19.144 8.587 19.144 19.143s-8.588 19.143-19.144 19.143-19.144-8.587-19.144-19.143 8.588-19.143 19.144-19.143zM221.695 89.952c-17.724 0-32.144 14.419-32.144 32.143s14.42 32.143 32.144 32.143 32.144-14.419 32.144-32.143-14.42-32.143-32.144-32.143zm0 51.286c-10.556 0-19.144-8.587-19.144-19.143s8.588-19.143 19.144-19.143 19.144 8.587 19.144 19.143-8.588 19.143-19.144 19.143z"/><path d="M299.916 38.724c-8.947-15.496-24.971-24.747-42.863-24.747H49.574c-17.894 0-33.917 9.251-42.864 24.747-8.946 15.496-8.946 33.999.001 49.494L110.45 267.901c8.946 15.496 24.971 24.747 42.863 24.747s33.917-9.251 42.863-24.747l103.74-179.682c8.946-15.496 8.946-33.999 0-49.495zm-11.258 42.995L184.919 261.401c-6.597 11.426-18.412 18.247-31.605 18.247s-25.009-6.821-31.605-18.247L17.968 81.719c-6.597-11.426-6.597-25.068 0-36.494S36.38 26.977 49.574 26.977h207.479c13.193 0 25.008 6.822 31.604 18.247 6.597 11.426 6.597 25.069.001 36.495z"/></svg>