<svg class="svg-icon" style="width:1em;height:1em;vertical-align:middle;fill:#1c2e4a;overflow:hidden" viewBox="0 0 1024 1024" xmlns="http://www.w3.org/2000/svg"><path d="M581.62 472.233c0-33.968-27.537-61.507-61.518-61.507-33.982 0-61.52 27.54-61.52 61.507s27.538 61.507 61.52 61.507c33.981 0 61.518-27.538 61.518-61.507z"/><path d="M914.503 486.997c3.512-121.271-47.108-231.642-129.698-307.937L634.275 342.5c-22.477-19.74-49.967-33.836-80.436-39.866V73.97c-7.727-.364-15.114-.703-22.839-.703l-.352.34c-121.282 0-230.249 53.43-304.059 138.502l165.654 143.856c-24.681 27.054-41.005 61.822-44.614 100.345l-212.786-6.225h-2.12c-.703 7.738-1.041 15.113-1.405 22.851l.364.352c-3.512 121.27 47.095 231.641 129.699 307.935l155.734-169.081c-.58-.558-1.088-1.173-1.67-1.72 23.008 17.51 50.45 29.343 80.41 33.57v220.889c7.727.35 15.115.702 22.841.702l.351-.352c121.283 0 230.25-53.43 304.061-138.502L655.2 580.91a172.436 172.436 0 0 0 35.242-77.165l220.898 6.454h2.108c.702-7.726 1.054-15.113 1.406-22.851l-.351-.351zm-506.88-14.412c0-62.222 50.256-112.478 112.478-112.478 62.222 0 112.477 50.256 112.477 112.478 0 62.221-50.255 112.48-112.477 112.48s-112.479-50.26-112.479-112.48z"/></svg>