<svg xmlns="http://www.w3.org/2000/svg" width="80" height="80" fill="#1c2e4a" viewBox="0 0 343.967 343.967" style="enable-background:new 0 0 343.967 343.967" xml:space="preserve"><path d="M301.294 186.876c14.022-11.025 28.566-46.167-14.403-56.316-30.894-7.234-51.617 14.773-66.313-17.574-13.462-29.648 28.066-83.43-17.16-108.808-16.649-9.361-31.965-3.416-30.355 22.159 3.03 51.258-27.951 58.59-50.964 106.524-21.985 12.847-39.879 19.902-61.945 33.042l-31.65.332v149.052h29.404l22.697 6.63c34.799 18.237 77.73 22.05 107.612 22.05 17.992 0 54.276-1.697 66.09-11.15 13.396-10.72 17.269-27.913 18.455-35.12 23.35-9.366 29.578-28.898 21.022-50.034 10.095-5.559 16.366-12.988 18.645-22.077 4.676-18.504-7.654-32.679-11.135-38.71z"/></svg>