<svg xmlns="http://www.w3.org/2000/svg" width="80" height="80" fill="#1c2e4a" viewBox="0 0 36.82 36.82" style="enable-background:new 0 0 36.82 36.82" xml:space="preserve"><path d="M30.212 24.439a2.154 2.154 0 0 0-2.975.656 12.4 12.4 0 0 1-10.489 5.756c-6.861 0-12.439-5.58-12.439-12.439S9.887 5.973 16.748 5.973c3.639 0 7.018 1.576 9.363 4.272l-2.605 1.981 7.621 1.033 1.042-7.623-2.614 1.988a16.662 16.662 0 0 0-12.807-5.962C7.514 1.663 0 9.178 0 18.411c0 9.233 7.514 16.748 16.748 16.748 5.743 0 11.021-2.896 14.119-7.746a2.154 2.154 0 0 0-.655-2.974z"/><path d="M26.355 20.458c1.574-1.203 3.021-2.461 3.021-4.278 0-1.367-.971-2.422-2.774-2.422-1.012 0-2.037.328-2.748.768l.396 1.408c.466-.287 1.08-.521 1.873-.521s1.229.451 1.229 1.081c0 1.065-1.147 2.105-2.926 3.555l-1.916 1.479-.23 1.271h6.07l.313-1.682-3.187-.002v-.026l.879-.631zm9.426-1.326.984-5.225h-2.42l-4.24 5.416-.244 1.312h3.787l-.41 2.158h1.845l.411-2.158h1.055l.271-1.507h-1.039v.004zm-1.435-1.928-.41 1.929h-1.857l.014-.027 1.465-1.886c.424-.589.766-1.147 1.162-1.75h.055c-.142.558-.306 1.172-.429 1.734zM21.922 13.18a.54.54 0 0 0-.763.019l-3.238 3.385a2.149 2.149 0 0 0-1.174-.346c-.024 0-.053.003-.078.004l-4.411-4.22a1.346 1.346 0 0 0-1.861 1.943l4.216 4.032a2.171 2.171 0 0 0 .358 1.669l-1.322 1.383a.54.54 0 0 0 .39.91.54.54 0 0 0 .39-.166l1.365-1.428a2.144 2.144 0 0 0 1.465.162l.993.949a1.354 1.354 0 0 0 1.905-.043 1.344 1.344 0 0 0-.043-1.901l-1.188-1.138a2.142 2.142 0 0 0-.265-1.024l3.279-3.43a.541.541 0 0 0-.018-.76z"/></svg>