<svg xmlns="http://www.w3.org/2000/svg" viewBox="0 0 651.25 482.63" version="1.0"><path style="fill:#1c2e4a" d="M481.34 141.88c-151.43 0-274.34 31.36-274.34 70 0 9.22 7.02 18.02 19.75 26.09-42.6 40.36-67.97 90.97-67.97 145.91 0 55.69 26.09 106.96 69.75 147.59-6.66 19.48-33.32 82.15-24.28 91.19 9.73 9.72 81.62-21.88 94.91-25.44 4.09-1.1 14.57-2.71 26.87-4.75 46.89 19.19 100.89 30.12 158.38 30.12 58.06 0 112.59-11.16 159.81-30.71 13.85 2.32 25.87 4.14 30.34 5.34 13.29 3.56 85.18 35.16 94.91 25.44 9.7-9.7-21.7-81.21-25.41-94.78 41.39-40.04 65.97-89.93 65.97-144 0-56.04-26.38-107.57-70.53-148.32 10.46-7.4 16.19-15.36 16.19-23.68 0-38.64-122.91-70-274.35-70z" transform="translate(-158.786 -141.871)"/><path style="fill:#fff" transform="matrix(5.0209 0 0 3.2147 -795.786 -1296.371)" d="M269.21 423.29c0 6.97-20.82 12.63-46.47 12.63s-46.47-5.66-46.47-12.63 20.82-12.63 46.47-12.63 46.47 5.66 46.47 12.63z"/></svg>