<svg width="32" height="32" fill="none" xmlns="http://www.w3.org/2000/svg"><path d="M28.033 20.65v3.354a2.236 2.236 0 0 1-2.437 2.237 22.132 22.132 0 0 1-9.651-3.433 21.807 21.807 0 0 1-6.71-6.71 22.13 22.13 0 0 1-3.433-9.695 2.236 2.236 0 0 1 2.225-2.438h3.355a2.237 2.237 0 0 1 2.237 1.923c.141 1.074.404 2.128.783 3.143a2.236 2.236 0 0 1-.504 2.36l-1.42 1.42a17.892 17.892 0 0 0 6.71 6.709l1.42-1.42a2.237 2.237 0 0 1 2.36-.504 14.36 14.36 0 0 0 3.142.783 2.236 2.236 0 0 1 1.923 2.27z" stroke="#0087d8" stroke-width="2" stroke-linecap="round" stroke-linejoin="round"/></svg>